<svg id="Layer_2" enable-background="new 0 0 512 512" viewBox="0 0 512 512" xmlns="http://www.w3.org/2000/svg"><g style="fill:none;stroke:#474747;stroke-linecap:round;stroke-linejoin:round;stroke-miterlimit:10;stroke-width:14"><g><path d="m166.645 198.07v-73.154l39.774-33.79 42.897 33.79v73.154"/><path d="m206.419 91.126h87.739l42.898 33.79v73.154"/><path d="m249.316 124.916h87.74"/><path d="m191.819 144.64v4.363"/><path d="m213.87 124.916v4.363"/><path d="m218.933 198.07v-22.475h-22.052v22.475"/></g><ellipse cx="118.894" cy="140.388" rx="21.951" ry="57.724"/><path d="m138.832 70.182c4.007-11.298 9.718-18.363 16.057-18.363 9.674 0 17.887 16.457 20.81 39.307"/><path d="m325.506 89.822c2.555-25.28 11.318-43.907 21.736-43.907 7.561 0 14.25 9.812 18.327 24.858"/><ellipse cx="386.36" cy="138.976" rx="22.488" ry="59.136"/><path d="m474.328 122.635c2.299-3.581 4.983-5.637 7.849-5.637 8.518 0 15.423 18.158 15.423 40.556s-6.905 40.556-15.423 40.556"/><ellipse cx="455.638" cy="164.991" rx="12.595" ry="33.121"/><ellipse cx="33.888" cy="164.991" rx="12.595" ry="33.121"/><path d="m185.861 221s-19.217 156.743 151.194 275.151"/><path d="m219.117 221s24.721 130.96 241.637 235.438"/><path d="m253.203 221s100.088 117.03 238.397 165.786"/><path d="m294.65 221s61.333 47.57 196.95 95.139"/><path d="m337.056 221h154.544"/><path d="m155.465 221s-60.523 152.763 16.062 275.151"/><path d="m53.955 221h-35.987"/><path d="m124.58 221s-84.721 110.064-90.692 235.438"/><path d="m94.943 221s-55.349 36.155-76.975 82.893"/></g></svg>