<svg id="Layer_1" viewBox="0 0 128 128" xmlns="http://www.w3.org/2000/svg" data-name="Layer 1">
    <path d="m83.61 75.15-40.06.03c-2.45 0-5.82 1.25-7.68 2.84l-6.54 5.61c-.95.81-2.87 1.52-4.11 1.53l-14.11.06c-.82 0-1.58.33-2.16.91-.57.58-.88 1.35-.86 2.17l.1 6.42c.03 1.67 1.4 3.01 3.07 3.01h.02l14.13-.17h.03c1.19 0 2.94.74 3.76 1.6l6.46 6.78c1.67 1.75 4.81 3.06 7.29 3.06h.29l40.61-1.84c3.42-.15 6.18-3.05 6.16-6.47l-.12-19.29c-.02-3.44-2.84-6.24-6.29-6.24zm-30.41 2.92 22.59-.02v12.57h-22.59zm-41.94 16.75c-.09 0-.16-.07-.16-.16l-.07-6.51s.08-.04.1-.04l10.36-.04.04 6.62zm72.48 9.43-40.61 1.84c-1.69.09-4.19-.93-5.35-2.16l-6.47-6.79c-1.37-1.43-3.88-2.5-5.87-2.5h-1.01s-.03-6.59-.03-6.59h.84c1.94 0 4.52-.96 5.99-2.23l6.54-5.61c1.33-1.14 4.04-2.14 5.79-2.14h6.74s0 13.99 0 13.99c0 .8.65 1.45 1.45 1.45h25.49c.8 0 1.45-.65 1.45-1.45v-14.02h4.92c1.85 0 3.37 1.5 3.38 3.35l.12 19.29c.01 1.88-1.5 3.47-3.38 3.55z"/>
    <path d="m98.97 48.33-40.06.03c-2.45 0-5.82 1.25-7.68 2.85l-6.54 5.61c-.94.81-2.86 1.53-4.11 1.53l-14.11.06c-.82 0-1.58.33-2.15.91s-.88 1.35-.87 2.17l.1 6.42c.03 1.67 1.39 3.01 3.05 3.01h.04l14.13-.17h.03c1.19 0 2.94.74 3.76 1.6.55.58 1.47.6 2.05.05s.6-1.47.05-2.05c-1.37-1.44-3.9-2.51-5.91-2.5l-.03-6.6c1.93-.04 4.42-.98 5.86-2.22l6.54-5.61c1.33-1.14 4.04-2.14 5.79-2.15h6.74s0 14 0 14c0 .8.65 1.45 1.45 1.45h25.49c.8 0 1.45-.65 1.45-1.45v-14.02h4.92s0 0 0 0c1.85 0 3.36 1.51 3.38 3.36l.12 19.29c.01 1.88-1.51 3.47-3.38 3.55l-5.16.22c-.8.03-1.42.71-1.39 1.51.03.78.68 1.39 1.45 1.39h.06l5.16-.22c3.42-.15 6.18-3.06 6.16-6.47l-.12-19.29c-.02-3.44-2.84-6.24-6.28-6.24zm-72.37 19.67c-.08 0-.15-.07-.15-.15l-.1-6.42s0-.06.04-.09.08-.04.09-.04l11.33-.05.04 6.61-11.24.14zm64.54-4.2h-22.59v-12.55l22.59-.02z"/>
    <path d="m119.78 25.24c-.02-3.44-2.84-6.24-6.28-6.24l-40.06.03c-2.45 0-5.82 1.25-7.68 2.85l-6.54 5.61c-.95.81-2.87 1.53-4.11 1.53l-14.11.06c-.82 0-1.58.33-2.15.91s-.88 1.35-.86 2.17l.1 6.42c.03 1.68 1.37 3.04 3.09 3.01l14.13-.17c1.16 0 2.96.74 3.79 1.6.55.58 1.47.6 2.05.05s.6-1.47.05-2.05c-1.37-1.43-3.88-2.5-5.87-2.5h-.04l-.03-6.6c1.92-.04 4.42-.98 5.86-2.22l6.54-5.61c1.33-1.14 4.04-2.14 5.79-2.15h6.74s0 13.99 0 13.99c0 .8.65 1.45 1.45 1.45h25.49c.8 0 1.45-.65 1.45-1.45v-14.02h4.92s0 0 0 0c1.85 0 3.36 1.51 3.38 3.36l.12 19.29c.01 1.88-1.51 3.47-3.38 3.55l-5.16.22c-.8.03-1.42.71-1.39 1.51.03.78.68 1.39 1.45 1.39h.06l5.16-.22c3.42-.15 6.18-3.06 6.16-6.47l-.12-19.29zm-78.64 13.43c-.06.02-.15-.07-.16-.16l-.1-6.42s0-.06.04-.09c.04-.04.08-.04.09-.04l11.33-.05.04 6.61-11.24.14zm64.53-4.2h-22.59v-12.55l22.59-.02v12.56z"/>
</svg>