<?xml version="1.0" encoding="utf-8"?>
<!DOCTYPE svg PUBLIC "-//W3C//DTD SVG 1.0//EN" "http://www.w3.org/TR/2001/REC-SVG-20010904/DTD/svg10.dtd">
<svg version="1.0" xmlns="http://www.w3.org/2000/svg" width="64px" height="64px" viewBox="12 15 40 34" preserveAspectRatio="xMidYMid meet">
    <g fill="#ffffff">
        <path d="M33.39 45.81 c-0.75 -0.11 -1.44 -0.67 -1.71 -1.38 -0.19 -0.49 -0.15 -1.64 0.06 -2.08 0.21 -0.44 0.60 -0.84 1.03 -1.07 0.37 -0.19 0.41 -0.20 1.13 -0.20 0.69 0 0.78 0.01 1.14 0.18 0.46 0.21 0.90 0.64 1.10 1.09 0.12 0.26 0.14 0.41 0.14 1.11 0 0.76 -0.01 0.83 -0.17 1.13 -0.34 0.64 -0.94 1.08 -1.67 1.22 -0.37 0.07 -0.56 0.07 -1.05 0z"/>
        <path d="M17.83 45.68 c-0.41 -0.16 -0.88 -0.58 -1.10 -0.98 -0.36 -0.66 -0.36 -1.76 -0.02 -2.44 0.19 -0.38 0.70 -0.85 1.08 -1.02 0.38 -0.17 1.23 -0.22 1.72 -0.13 0.77 0.16 1.44 0.82 1.65 1.63 0.14 0.57 0.09 1.31 -0.12 1.77 -0.19 0.43 -0.66 0.89 -1.08 1.10 -0.27 0.13 -0.42 0.15 -1.06 0.17 -0.64 0.02 -0.80 0 -1.08 -0.11z"/>
        <path d="M39.06 41.63 c0 -2.02 0 -2.06 0.13 -2.06 0.13 0 0.13 0.04 0.13 1.94 0 1.86 -0.03 2.18 -0.19 2.18 -0.04 0 -0.06 -0.78 -0.06 -2.06z"/>
        <path d="M22.50 42.74 c-0.04 -0.18 -0.19 -0.57 -0.32 -0.86 -0.21 -0.44 -0.34 -0.63 -0.79 -1.06 -0.84 -0.84 -1.66 -1.17 -2.72 -1.11 -1.38 0.08 -2.73 1.06 -3.27 2.38 -0.16 0.40 -0.18 0.43 -0.38 0.43 l-0.20 0 0.01 -1.95 0.02 -1.96 1.19 -0.03 c1.24 -0.03 1.40 -0.07 1.40 -0.32 0 -0.26 -0.21 -0.31 -1.45 -0.31 l-1.17 0 0 -2.01 c0 -1.99 0.01 -2.03 0.15 -2.33 0.17 -0.38 0.35 -0.54 0.73 -0.71 0.26 -0.12 0.41 -0.13 2.16 -0.13 l1.89 0 1.21 1.94 c0.67 1.06 1.27 1.96 1.34 1.99 0.13 0.07 0.46 0.08 7.94 0.38 2.58 0.10 5.09 0.20 5.58 0.22 l0.89 0.04 0 1.62 0 1.62 -0.19 0 c-0.12 0 -0.32 -0.09 -0.55 -0.24 -1.14 -0.78 -2.42 -0.86 -3.67 -0.21 -1 0.52 -1.73 1.48 -2.03 2.69 l-0.07 0.26 -3.80 0 -3.81 0 -0.08 -0.32z"/>
        <path d="M37.66 42.99 c-0.01 -0.04 -0.09 -0.31 -0.19 -0.59 l-0.16 -0.51 0 -2.41 c0 -2.31 -0.01 -2.41 -0.13 -2.57 -0.13 -0.16 -0.13 -0.25 -0.13 -9.44 l0 -9.29 0.73 0 0.73 0 -0.04 0.32 c-0.02 0.18 -0.04 5.78 -0.04 12.44 l0 12.11 -0.38 0 c-0.25 0 -0.39 -0.03 -0.40 -0.08z"/>
        <path d="M42 35.34 l0 -3.66 1.08 0.01 1.08 0.02 0.03 1.27 c0.04 1.64 -0.08 1.51 1.42 1.51 1.49 0 1.39 0.11 1.39 -1.56 l0 -1.25 1.09 0 1.09 0 0 3.66 0 3.66 -3.59 0 -3.59 0 0 -3.66z"/>
        <path d="M39.09 38.61 c-0.02 -0.04 -0.03 -1.01 -0.02 -2.14 l0.02 -2.06 0.36 -0.02 0.36 -0.02 0 2.16 0 2.16 -0.34 0 c-0.22 0 -0.36 -0.03 -0.38 -0.08z"/>
        <path d="M32.50 36.55 c-0.77 -0.03 -1.42 -0.08 -1.44 -0.10 -0.02 -0.03 -0.03 -1.05 -0.01 -2.28 l0.03 -2.23 1.19 0.01 1.19 0.02 0.76 2.13 c0.42 1.17 0.76 2.22 0.76 2.33 l0.01 0.20 -0.54 -0.01 c-0.31 0 -1.18 -0.03 -1.96 -0.06z"/>
        <path d="M28.50 36.38 l-0.53 -0.04 -0.56 -1.35 c-0.77 -1.84 -0.77 -1.86 -0.91 -1.93 -0.13 -0.06 -1.39 -0.19 -3.63 -0.34 -0.74 -0.05 -1.46 -0.11 -1.61 -0.13 l-0.26 -0.03 0 -2.86 c0 -3.42 0.11 -3.08 -0.99 -3.13 l-0.73 -0.03 -0.02 -2.46 -0.01 -2.45 5.29 0.01 5.29 0.02 0.87 2.44 c1.92 5.41 2.42 6.86 2.42 7.04 l0 0.18 -1.11 0 -1.11 -0.01 -0.61 -0.96 c-0.78 -1.23 -0.79 -1.26 -0.17 -1.76 0.24 -0.19 0.44 -0.41 0.44 -0.46 0 -0.13 -0.12 -0.26 -0.24 -0.26 -0.08 0 -2.47 1.94 -2.55 2.07 -0.04 0.08 0.08 0.28 0.19 0.32 0.06 0.03 0.23 -0.08 0.44 -0.24 0.30 -0.25 0.38 -0.28 0.66 -0.28 l0.31 0 0.35 0.54 c0.19 0.29 0.43 0.68 0.52 0.86 l0.17 0.32 -0.03 2.49 -0.02 2.48 -0.67 -0.01 c-0.37 -0.01 -0.91 -0.03 -1.20 -0.04z"/>
        <path d="M24.26 36.22 c-1.39 -0.06 -1.78 -0.09 -1.85 -0.16 -0.05 -0.05 -0.41 -0.61 -0.81 -1.25 -0.62 -0.98 -0.73 -1.19 -0.71 -1.38 l0.02 -0.22 0.59 0.02 c0.84 0.02 4.71 0.33 4.76 0.38 0.11 0.11 0.99 2.35 0.99 2.51 l0 0.19 -0.61 -0.01 c-0.34 0 -1.41 -0.04 -2.38 -0.08z"/>
        <path d="M44.81 32.78 l0 -1.09 0.78 0 0.78 0 0 1.09 0 1.09 -0.78 0 -0.78 0 0 -1.09z"/>
        <path d="M19.88 32.22 c-0.04 -0.05 -0.19 -0.10 -0.33 -0.11 l-0.26 -0.02 -0.02 -2.41 -0.01 -2.42 0.14 -0.04 c0.08 -0.02 0.33 -0.04 0.57 -0.04 l0.42 0 0 2.56 0 2.56 -0.21 0 c-0.11 0 -0.24 -0.04 -0.29 -0.09z"/>
        <path d="M19.29 20.96 c-0.03 -0.02 -0.04 -0.22 -0.04 -0.44 l0 -0.39 5.02 0 5.02 0 0.08 0.21 c0.04 0.11 0.08 0.31 0.08 0.44 l0 0.23 -5.05 0 c-2.78 0 -5.07 -0.02 -5.09 -0.04z"/>
        <path d="M36.50 17.48 c0 -0.14 0.15 -0.16 1.24 -0.16 1.12 0 1.33 0.03 1.33 0.16 0 0.07 -0.23 0.09 -1.28 0.09 -1.06 0 -1.28 -0.01 -1.28 -0.09z"/>
    </g>
    <g fill="#4f8e3e">
        <path d="M18.15 46.59 c-0.57 -0.13 -1.07 -0.39 -1.54 -0.84 -0.47 -0.44 -0.81 -1.01 -0.92 -1.58 l-0.07 -0.33 -0.30 -0.01 c-0.17 -0.01 -0.37 -0.04 -0.46 -0.08 -0.25 -0.09 -0.55 -0.38 -0.70 -0.66 l-0.14 -0.26 0 -4.56 0 -4.56 0.17 -0.36 c0.23 -0.47 0.68 -0.93 1.14 -1.16 0.51 -0.25 0.52 -0.26 1.89 -0.27 l1.20 -0.01 0 -6.14 0 -6.14 0.15 -0.17 0.15 -0.17 5.40 -0.01 c4.26 -0.01 5.43 0 5.55 0.06 0.19 0.09 0.24 0.22 1.21 2.98 2.27 6.44 4.87 13.81 4.93 13.96 0.05 0.13 0.10 0.17 0.24 0.17 l0.18 0 0 -7.69 0 -7.69 -0.81 0 c-0.80 0 -0.81 0 -0.94 -0.16 -0.17 -0.22 -0.17 -0.49 0.03 -0.68 0.14 -0.15 0.19 -0.16 0.94 -0.16 l0.78 0 0 -1.21 c0 -1.61 -0.13 -1.49 1.54 -1.49 l1.24 0.01 0.14 0.16 0.14 0.16 0 7.92 0 7.92 0.16 0.01 0.16 0.01 0 -1.19 c0 -1.17 0 -1.18 0.16 -1.33 0.19 -0.20 0.49 -0.21 0.68 -0.01 0.14 0.14 0.14 0.20 0.18 1.42 0.02 0.71 0.03 2.76 0.01 4.58 l-0.03 3.29 4.54 0 4.54 0 0.15 0.16 c0.31 0.31 0.15 0.79 -0.29 0.88 -0.11 0.02 -2.33 0.03 -4.91 0.02 l-4.71 -0.02 -0.15 -0.17 c-0.14 -0.16 -0.15 -0.22 -0.15 -0.93 0 -0.74 0 -0.74 -0.15 -0.74 -0.21 0 -0.22 0.13 -0.22 2.26 l0 1.86 -0.16 0.13 c-0.15 0.12 -0.25 0.13 -1.02 0.13 l-0.86 0 -0.16 0.51 c-0.44 1.33 -1.49 2.16 -2.88 2.28 -1.54 0.13 -3.06 -0.98 -3.38 -2.45 l-0.07 -0.34 -4.33 0 -4.32 0 -0.07 0.27 c-0.26 1.01 -0.85 1.75 -1.77 2.20 -0.66 0.32 -1.36 0.41 -2.08 0.25z m16.58 -1.11 c0.52 -0.19 0.92 -0.56 1.21 -1.11 0.13 -0.24 0.15 -0.37 0.15 -0.91 0 -0.51 -0.03 -0.68 -0.14 -0.92 -0.20 -0.44 -0.64 -0.88 -1.10 -1.09 -0.34 -0.16 -0.46 -0.18 -0.95 -0.18 -0.51 0 -0.60 0.02 -0.94 0.20 -0.74 0.39 -1.16 1.04 -1.20 1.89 -0.03 0.66 0.11 1.07 0.52 1.54 0.61 0.69 1.54 0.91 2.45 0.57z m-14.95 -0.05 c0.94 -0.45 1.44 -1.51 1.19 -2.50 -0.34 -1.32 -1.76 -2.03 -3 -1.51 -0.38 0.16 -0.89 0.64 -1.07 1.01 -0.59 1.16 -0.06 2.59 1.11 3.06 0.46 0.18 1.32 0.15 1.76 -0.06z m10.28 -2.83 c0.22 -0.88 0.59 -1.52 1.21 -2.09 1.33 -1.24 3.38 -1.41 4.86 -0.39 l0.37 0.25 0 -1.43 0 -1.43 -0.89 -0.04 c-0.49 -0.03 -3 -0.13 -5.58 -0.22 -7.48 -0.30 -7.81 -0.31 -7.94 -0.38 -0.07 -0.03 -0.67 -0.93 -1.34 -1.99 l-1.21 -1.94 -1.70 0 c-1.57 0 -1.71 0.01 -1.98 0.13 -0.38 0.17 -0.55 0.34 -0.73 0.71 -0.14 0.31 -0.15 0.35 -0.15 2.14 l0 1.83 1.19 0 c1.18 0 1.19 0 1.34 0.16 0.19 0.18 0.20 0.46 0.04 0.66 -0.12 0.14 -0.15 0.15 -1.33 0.18 l-1.21 0.03 -0.01 1.78 -0.02 1.78 0.18 -0.42 c0.49 -1.16 1.48 -2.01 2.67 -2.33 0.49 -0.13 1.51 -0.13 1.99 0 0.69 0.18 1.15 0.46 1.73 1.03 0.45 0.44 0.58 0.63 0.79 1.06 0.14 0.29 0.28 0.68 0.32 0.86 l0.08 0.32 3.62 0 3.61 0 0.07 -0.26z m8.20 -11.99 l0.02 -12.25 -0.51 0 -0.52 0 0 9.10 c0 9.01 0 9.10 0.13 9.26 0.12 0.16 0.13 0.26 0.13 2.57 l0 2.41 0.16 0.51 c0.09 0.28 0.17 0.54 0.19 0.59 0.01 0.04 0.11 0.08 0.21 0.08 l0.19 0 0.01 -12.25z m1.36 5.90 l0 -1.97 -0.17 0.02 -0.17 0.02 -0.02 1.88 c-0.01 1.03 0 1.91 0.02 1.95 0.01 0.04 0.10 0.08 0.19 0.08 l0.16 0 0 -1.98z m-5.13 -0.94 c-0.16 -0.47 -0.51 -1.44 -0.76 -2.14 l-0.46 -1.28 -1.02 -0.02 -1.01 -0.01 -0.01 1.83 c-0.01 1.01 -0.01 1.94 -0.02 2.08 0 0.13 0.03 0.25 0.06 0.26 0.06 0.02 2.11 0.11 3.17 0.14 l0.36 0.01 -0.31 -0.86z m-4.30 -1.66 l0.02 -2.33 -0.22 -0.38 c-0.52 -0.89 -0.81 -1.29 -0.94 -1.29 -0.07 0 -0.28 0.13 -0.47 0.28 -0.26 0.21 -0.39 0.28 -0.56 0.28 -0.31 0 -0.47 -0.19 -0.45 -0.51 0.02 -0.26 0.04 -0.28 1.29 -1.31 1.34 -1.11 1.47 -1.18 1.76 -0.94 0.08 0.06 0.15 0.21 0.17 0.34 0.04 0.26 -0.01 0.32 -0.63 0.84 l-0.31 0.26 0.62 0.98 0.62 0.98 0.92 0.01 0.92 0 -0.31 -0.89 c-0.61 -1.74 -1.32 -3.73 -2.14 -6.05 l-0.83 -2.34 -5.11 -0.02 -5.10 -0.01 0.01 2.26 0.02 2.27 0.73 0.03 c1.09 0.05 0.99 -0.29 0.99 3.13 l0 2.86 0.27 0.03 c0.14 0.03 0.87 0.08 1.61 0.13 2.24 0.16 3.50 0.28 3.63 0.34 0.13 0.07 0.14 0.09 0.91 1.93 l0.56 1.35 0.53 0.04 c0.29 0.02 0.75 0.04 1.01 0.04 l0.49 0.01 0.01 -2.33z m-3.24 1.97 c-0.05 -0.13 -0.27 -0.64 -0.47 -1.14 -0.21 -0.50 -0.39 -0.93 -0.42 -0.95 -0.02 -0.02 -0.99 -0.11 -2.16 -0.20 -1.17 -0.09 -2.27 -0.17 -2.45 -0.19 -0.17 -0.02 -0.34 -0.01 -0.36 0.02 -0.03 0.06 1.32 2.26 1.50 2.45 0.07 0.07 0.46 0.10 1.85 0.16 0.98 0.04 1.96 0.08 2.19 0.08 l0.42 0.01 -0.10 -0.23z m-6.78 -6.14 l0 -2.38 -0.23 0 c-0.13 0 -0.30 0.02 -0.38 0.04 l-0.14 0.04 0.01 2.23 0.02 2.22 0.26 0.02 c0.14 0.01 0.29 0.06 0.33 0.11 0.04 0.04 0.09 0.09 0.10 0.09 0.01 0 0.03 -1.07 0.03 -2.38z m9.06 -8.98 c0 -0.03 -0.03 -0.14 -0.08 -0.25 l-0.08 -0.21 -4.83 0 -4.83 0 0 0.21 c0 0.12 0.02 0.23 0.04 0.25 0.05 0.06 9.77 0.06 9.77 0z"/>
        <path d="M41.34 39.66 c-0.08 -0.08 -0.16 -0.24 -0.19 -0.36 -0.02 -0.12 -0.03 -1.99 -0.02 -4.17 l0.02 -3.96 0.17 -0.15 0.17 -0.15 4.06 0 4.07 0 0.18 0.18 0.18 0.18 0 4.14 0 4.13 -0.16 0.15 -0.15 0.16 -4.10 0 -4.10 0 -0.15 -0.15z m7.66 -4.32 l0 -3.47 -0.91 0 -0.91 0 0 1.25 c0 1.69 0.13 1.56 -1.58 1.56 -1.71 0 -1.57 0.14 -1.61 -1.51 l-0.03 -1.27 -0.89 -0.02 -0.89 -0.02 0 3.47 0 3.47 3.41 0 3.41 0 0 -3.47z m-2.81 -2.56 l0 -0.91 -0.59 0 -0.59 0 0 0.91 0 0.91 0.59 0 0.59 0 0 -0.91z"/>
    </g>
</svg>