<?xml version="1.0" encoding="utf-8"?>
<!DOCTYPE svg PUBLIC "-//W3C//DTD SVG 1.0//EN" "http://www.w3.org/TR/2001/REC-SVG-20010904/DTD/svg10.dtd">
<svg version="1.0" xmlns="http://www.w3.org/2000/svg" width="64px" height="64px" viewBox="11 15 40 34" preserveAspectRatio="xMidYMid meet">
 <g fill="#fefdfe">
  <path d="M31.23 50.52 c0 -0.15 0.30 -0.40 0.72 -0.59 0.25 -0.12 0.65 -0.31 0.87 -0.42 l0.41 -0.20 0 0.17 c0 0.16 -0.05 0.20 -0.62 0.45 -0.34 0.14 -0.67 0.26 -0.74 0.26 -0.06 0 -0.12 0.04 -0.12 0.08 0 0.13 -0.21 0.30 -0.37 0.30 -0.08 0 -0.14 -0.03 -0.14 -0.06z"/>
  <path d="M29.82 46.32 c0.15 -0.25 0.53 -0.44 1.73 -0.90 1.44 -0.56 1.62 -0.65 1.57 -0.72 -0.02 -0.03 0.01 -0.06 0.06 -0.06 0.07 0 0.10 0.06 0.10 0.19 0 0.15 -0.03 0.19 -0.12 0.19 -0.07 0 -0.14 0.03 -0.15 0.06 -0.03 0.08 -1.50 0.65 -1.67 0.65 -0.06 0 -0.12 0.03 -0.12 0.06 0 0.04 -0.04 0.06 -0.08 0.06 -0.05 0 -0.23 0.08 -0.41 0.16 -0.17 0.09 -0.37 0.16 -0.43 0.16 -0.06 0 -0.12 0.06 -0.14 0.13 -0.03 0.10 -0.09 0.13 -0.23 0.13 -0.19 0 -0.19 -0.01 -0.12 -0.13z"/>
  <path d="M29.91 41.67 c0.21 -0.23 0.49 -0.35 2.53 -1.13 l0.40 -0.15 0 0.15 c0 0.12 -0.14 0.19 -1.12 0.58 -0.62 0.24 -1.14 0.43 -1.17 0.43 -0.03 0 -0.10 0.06 -0.18 0.13 -0.08 0.08 -0.23 0.13 -0.36 0.13 -0.23 0 -0.23 0 -0.10 -0.14z"/>
  <path d="M29.82 37.21 c0.10 -0.14 0.38 -0.32 0.75 -0.52 0.33 -0.17 0.67 -0.35 0.75 -0.41 0.15 -0.10 0.15 -0.10 0.15 0.10 0 0.18 -0.03 0.21 -0.43 0.39 -0.23 0.11 -0.46 0.19 -0.52 0.19 -0.05 0 -0.09 0.03 -0.09 0.06 0 0.04 -0.03 0.06 -0.07 0.06 -0.04 0 -0.13 0.07 -0.20 0.16 -0.08 0.11 -0.19 0.16 -0.32 0.16 l-0.20 0 0.16 -0.21z"/>
  <path d="M30.77 32.28 c-0.01 -1.01 -0.01 -5.87 0 -6.44 l0.01 -0.52 1.29 0 1.29 0 0 3.79 0 3.79 -1.29 0 -1.29 0 -0.01 -0.63z"/>
  <path d="M34 29.61 c0 -1.04 0.01 -1.10 0.12 -1.10 0.12 0 0.12 0.06 0.13 0.93 0.01 1.01 -0.02 1.26 -0.16 1.26 -0.07 0 -0.09 -0.20 -0.09 -1.10z"/>
  <path d="M30.16 24.52 c-0.35 -0.06 -1.35 -0.29 -2.23 -0.51 -1.99 -0.50 -2.53 -0.59 -3.19 -0.59 -1.01 0 -1.78 0.19 -3.85 0.94 -0.46 0.17 -0.86 0.19 -1.26 0.08 -0.31 -0.08 -0.52 -0.26 -0.70 -0.61 -0.14 -0.25 -0.14 -0.35 -0.16 -2.54 -0.03 -2.53 0.01 -2.78 0.37 -3.20 0.44 -0.50 1.12 -0.48 2.58 0.08 1.12 0.43 1.61 0.56 2.39 0.66 0.93 0.12 1.50 0.01 4.64 -0.81 1.50 -0.39 1.90 -0.44 3.57 -0.40 1.66 0.04 1.68 0.04 3.95 0.66 1.70 0.46 2.30 0.57 3.13 0.57 0.90 -0.01 1.61 -0.17 2.87 -0.66 0.84 -0.33 1.12 -0.41 1.52 -0.44 0.42 -0.03 0.52 -0.01 0.77 0.12 0.23 0.12 0.33 0.23 0.48 0.54 l0.19 0.39 0.02 2.05 c0.03 2.68 -0.04 3.08 -0.59 3.49 -0.15 0.12 -0.28 0.14 -0.74 0.14 -0.52 -0.01 -0.63 -0.03 -1.53 -0.37 -1.26 -0.48 -1.85 -0.64 -2.65 -0.68 -0.91 -0.04 -1.54 0.06 -3.57 0.57 -0.98 0.25 -2.04 0.49 -2.35 0.55 -0.81 0.14 -2.82 0.12 -3.68 -0.03z"/>
  <path d="M17.85 21.47 c-0.02 -0.08 -0.04 -0.29 -0.04 -0.47 0 -0.41 0.06 -0.61 0.17 -0.61 0.07 0 0.09 0.14 0.09 0.61 0 0.48 -0.02 0.61 -0.09 0.61 -0.05 0 -0.10 -0.06 -0.13 -0.14z"/>
  <path d="M24.97 18.11 c0 -0.06 0.07 -0.12 0.21 -0.14 0.11 -0.02 0.43 -0.06 0.69 -0.10 0.26 -0.04 0.90 -0.19 1.42 -0.32 2.70 -0.73 3.33 -0.84 4.81 -0.84 1.09 0 1.32 0.03 1.32 0.16 0 0.06 -0.35 0.09 -1.43 0.12 -1.58 0.03 -1.93 0.09 -3.70 0.57 -1.77 0.48 -2.19 0.57 -2.75 0.62 -0.50 0.03 -0.57 0.03 -0.57 -0.06z"/>
  <path d="M39.61 18.10 c0 -0.06 0.09 -0.10 0.25 -0.12 0.77 -0.12 1.36 -0.26 2.05 -0.53 1.26 -0.48 1.88 -0.65 2.21 -0.57 0.23 0.06 0.19 0.22 -0.06 0.22 -0.32 0 -0.82 0.15 -1.86 0.54 -0.99 0.38 -1.72 0.56 -2.25 0.56 -0.24 0 -0.32 -0.03 -0.32 -0.10z"/>
  <path d="M18.74 17.35 c0.34 -0.38 1.65 -0.66 1.65 -0.35 0 0.05 -0.14 0.10 -0.34 0.12 -0.38 0.05 -0.95 0.24 -0.95 0.32 0 0.03 -0.10 0.05 -0.24 0.05 -0.23 0 -0.23 0 -0.12 -0.13z"/>
 </g>
 <g fill="#124a27" stroke="#124a27" stroke-width="1" stroke-linejoin="round">
  <path d="M31.51 51.26 c-0.14 -0.06 -0.23 -0.16 -0.28 -0.32 -0.15 -0.45 0.13 -0.75 1.08 -1.17 0.66 -0.28 0.85 -0.39 0.85 -0.48 0 -0.06 -0.43 -0.25 -1.69 -0.74 -1.50 -0.58 -1.79 -0.80 -1.85 -1.40 -0.04 -0.41 0.01 -0.59 0.25 -0.86 0.24 -0.27 0.52 -0.41 1.88 -0.93 1.32 -0.50 1.45 -0.57 1.34 -0.68 -0.08 -0.08 -0.86 -0.40 -2.38 -0.97 -1 -0.38 -1.37 -1.05 -0.99 -1.79 0.15 -0.29 0.57 -0.52 1.90 -1.05 1.33 -0.52 1.52 -0.62 1.45 -0.74 -0.02 -0.04 -0.65 -0.31 -1.40 -0.61 -1.83 -0.72 -2.11 -0.96 -2.05 -1.77 0.03 -0.34 0.05 -0.39 0.35 -0.66 0.19 -0.17 0.48 -0.36 0.72 -0.45 0.83 -0.32 0.88 -0.42 0.86 -1.77 -0.01 -0.57 -0.03 -1.05 -0.05 -1.06 -0.02 -0.02 -0.29 -0.04 -0.60 -0.04 -0.59 -0.01 -0.80 -0.08 -0.93 -0.31 -0.06 -0.11 -0.09 -1.07 -0.12 -4.14 l-0.03 -3.99 -0.26 -0.06 c-0.14 -0.03 -1.03 -0.25 -1.97 -0.47 -2.92 -0.70 -3.75 -0.68 -5.94 0.17 -0.75 0.30 -0.94 0.34 -1.45 0.37 -0.54 0.03 -0.63 0.02 -0.99 -0.14 -0.43 -0.19 -0.82 -0.57 -1.03 -0.99 -0.30 -0.57 -0.33 -0.88 -0.33 -3.01 0 -1.10 0.03 -2.16 0.06 -2.35 0.15 -0.82 0.63 -1.46 1.28 -1.76 0.25 -0.12 0.43 -0.14 0.98 -0.14 l0.68 0 1 0.40 c1.34 0.53 1.80 0.63 2.97 0.63 1.01 0 1.02 0 2.97 -0.53 2.09 -0.57 2.30 -0.61 4.10 -0.65 1.87 -0.04 1.90 -0.04 4.12 0.56 1.72 0.46 2.30 0.57 3.23 0.63 0.91 0.05 1.48 -0.06 2.74 -0.54 1.16 -0.44 1.54 -0.54 2.04 -0.54 1.07 0 1.80 0.69 2.06 1.95 0.08 0.38 0.10 0.90 0.10 2.32 0 1.01 -0.03 1.97 -0.06 2.15 -0.22 1.14 -0.85 1.85 -1.80 2.03 -0.48 0.09 -0.94 -0.01 -2.11 -0.45 -0.57 -0.21 -1.26 -0.43 -1.53 -0.48 -0.57 -0.12 -1.81 -0.14 -2.44 -0.04 -0.34 0.06 -2.87 0.66 -3.82 0.91 l-0.25 0.06 0.02 3.99 0.01 4 -0.20 0.20 c-0.19 0.19 -0.23 0.20 -0.74 0.21 l-0.54 0.02 -0.05 1.19 c-0.06 1.73 -0.19 1.97 -1.34 2.54 -0.35 0.17 -0.64 0.35 -0.63 0.39 0.03 0.09 0.32 0.22 1.52 0.68 1.27 0.48 1.67 0.71 1.86 1.06 0.28 0.50 0.13 1.17 -0.35 1.48 -0.13 0.09 -0.81 0.38 -1.50 0.65 -1.61 0.63 -1.55 0.60 -1.55 0.68 0 0.08 -0.06 0.05 1.55 0.68 0.69 0.27 1.35 0.55 1.46 0.62 0.64 0.40 0.71 1.35 0.14 1.83 -0.25 0.21 -0.40 0.28 -1.64 0.75 -1.20 0.45 -1.52 0.59 -1.52 0.65 0 0.08 0.39 0.26 1.65 0.77 0.63 0.25 1.26 0.53 1.39 0.62 0.31 0.21 0.51 0.58 0.51 0.96 0 0.57 -0.30 0.89 -1.15 1.26 -0.34 0.15 -0.72 0.36 -0.85 0.48 -0.28 0.26 -0.48 0.31 -0.75 0.19z m1.65 -22.15 l0 -3.60 -1.10 0 -1.10 0 -0.01 0.52 c-0.01 0.50 0 4.78 0.01 6.05 l0 0.63 1.10 0 1.10 0 0 -3.59z m0.49 -4.76 c0.32 -0.06 1.37 -0.30 2.35 -0.55 2.13 -0.54 2.64 -0.61 3.80 -0.56 1.01 0.04 1.41 0.14 2.81 0.66 1.39 0.53 1.79 0.52 2.21 -0.10 0.23 -0.35 0.29 -0.94 0.26 -2.95 l-0.02 -1.86 -0.19 -0.39 c-0.15 -0.31 -0.25 -0.41 -0.48 -0.54 -0.40 -0.21 -0.66 -0.16 -1.92 0.32 -1.35 0.52 -1.95 0.65 -3.05 0.65 -1.03 0.01 -1.51 -0.08 -3.32 -0.57 -2.19 -0.60 -2.31 -0.62 -3.75 -0.66 -1.46 -0.04 -1.92 0.01 -3.39 0.40 -3.21 0.85 -3.82 0.95 -4.94 0.82 -0.82 -0.10 -1.39 -0.25 -2.51 -0.68 -0.50 -0.19 -1.03 -0.37 -1.17 -0.40 -0.60 -0.10 -1.09 0.25 -1.28 0.90 -0.09 0.30 -0.10 0.68 -0.08 2.43 0.02 1.88 0.03 2.10 0.14 2.31 0.21 0.39 0.42 0.57 0.77 0.65 0.30 0.06 0.37 0.06 0.78 -0.09 2.30 -0.82 2.85 -0.95 4.07 -0.95 0.86 0 1.29 0.08 3.38 0.59 0.87 0.22 1.87 0.45 2.23 0.51 0.85 0.15 2.51 0.16 3.30 0.03z"/>
 </g>
</svg>