<?xml version="1.0" encoding="utf-8"?>
<!DOCTYPE svg PUBLIC "-//W3C//DTD SVG 1.0//EN" "http://www.w3.org/TR/2001/REC-SVG-20010904/DTD/svg10.dtd">
<svg version="1.0" xmlns="http://www.w3.org/2000/svg" width="64px" height="64px" viewBox="0 0 64 64" preserveAspectRatio="xMidYMid meet">
    <g fill="#ffffff">
        <path d="M31.78 38.33 c-1.96 -0.12 -3.84 -0.68 -5.49 -1.63 -2.38 -1.38 -4.32 -3.61 -5.40 -6.20 -0.74 -1.78 -1.08 -3.55 -1.08 -5.72 0 -1.34 0.10 -2.31 0.35 -3.34 0.16 -0.68 1 -3.64 2.63 -9.28 l0.93 -3.19 8.82 -0.02 8.82 -0.01 0.13 0.42 c0.28 0.97 2.31 8.08 2.86 10.02 0.79 2.83 0.84 3.10 0.88 5.04 0.03 1.24 0.01 1.74 -0.07 2.39 -0.38 2.99 -1.64 5.66 -3.65 7.78 -1.67 1.76 -4 3.04 -6.37 3.53 -1.10 0.22 -2.26 0.30 -3.36 0.23z m2.59 -2.46 c4.44 -0.94 7.75 -4.49 8.51 -9.13 0.11 -0.66 0.13 -0.96 0.10 -1.97 -0.02 -0.65 -0.06 -1.26 -0.08 -1.34 -0.04 -0.14 -0.06 -0.14 -0.52 -0.10 -0.26 0.02 -1.09 0.11 -1.85 0.20 -1.73 0.20 -1.58 0.18 -3.44 0.37 -0.86 0.09 -1.94 0.19 -2.41 0.24 -0.46 0.05 -2.04 0.22 -3.50 0.38 -1.46 0.16 -3.05 0.32 -3.53 0.38 -0.48 0.05 -1.58 0.16 -2.44 0.25 -1.69 0.17 -2.55 0.27 -2.93 0.32 l-0.24 0.04 0.04 0.48 c0.24 2.82 1.65 5.62 3.72 7.43 1.54 1.34 3.39 2.21 5.43 2.54 0.79 0.13 2.29 0.09 3.13 -0.09z"/>
        <path d="M22.88 7.31 c0 -0.12 0.04 -0.13 0.66 -0.13 0.61 0 0.66 0.01 0.66 0.13 0 0.12 -0.04 0.13 -0.66 0.13 -0.61 0 -0.66 -0.01 -0.66 -0.13z"/>
    </g>
    <g fill="#000101">
        <path d="M23.63 56.25 l0 -1 3.97 0 3.97 0 0 -7.62 0 -7.61 -0.47 -0.04 c-1.31 -0.11 -3.34 -0.70 -4.66 -1.35 -4.47 -2.19 -7.41 -6.35 -8.21 -11.63 -0.08 -0.53 -0.11 -1.11 -0.11 -2.22 0 -2.22 0.06 -2.60 1.06 -6.06 1.20 -4.14 2.49 -8.60 2.89 -10.03 l0.43 -1.47 10.07 -0.02 c9.63 -0.02 10.07 -0.01 10.10 0.09 0.16 0.54 3.56 12.43 3.79 13.29 0.40 1.47 0.49 2.12 0.54 3.67 0.08 2.87 -0.46 5.33 -1.70 7.78 -1.21 2.39 -2.79 4.19 -4.91 5.61 -1.89 1.27 -4.31 2.16 -6.32 2.34 l-0.49 0.04 0 7.61 0 7.62 3.96 0.01 3.95 0.02 0 0.97 0 0.97 -8.92 0.02 -8.93 0.01 0 -1z m9.80 -18.13 c1.52 -0.12 2.88 -0.48 4.23 -1.12 3.59 -1.71 6.08 -4.86 7.06 -8.93 0.28 -1.17 0.37 -2.14 0.33 -3.67 -0.04 -1.73 -0.11 -2.10 -0.88 -4.84 -0.54 -1.94 -2.58 -9.05 -2.86 -10.02 l-0.13 -0.42 -8.64 0.01 -8.64 0.02 -0.93 3.19 c-1.63 5.64 -2.47 8.61 -2.63 9.28 -0.46 1.90 -0.47 4.27 -0.03 6.28 1.07 4.91 4.66 8.72 9.31 9.87 0.94 0.24 1.66 0.34 2.84 0.40 0.11 0.01 0.53 -0.02 0.96 -0.05z"/>
    </g>
    <g fill="#940d33">
        <path d="M31.06 36.16 c-2.94 -0.47 -5.42 -2.03 -7.15 -4.47 -0.49 -0.69 -1.19 -2.10 -1.47 -2.93 -0.26 -0.79 -0.49 -1.99 -0.54 -2.78 l-0.04 -0.66 0.24 -0.04 c0.38 -0.05 1.23 -0.15 2.93 -0.32 0.86 -0.09 1.96 -0.20 2.44 -0.25 0.48 -0.06 2.07 -0.22 3.53 -0.38 1.46 -0.16 3.04 -0.32 3.50 -0.38 0.46 -0.05 1.55 -0.16 2.41 -0.24 1.89 -0.19 1.75 -0.17 3.44 -0.38 0.76 -0.09 1.67 -0.18 2.04 -0.20 l0.67 -0.04 0.04 0.24 c0.02 0.13 0.05 0.34 0.07 0.46 0.09 0.55 0.03 2.37 -0.09 3.13 -0.76 4.63 -4.06 8.18 -8.51 9.13 -0.83 0.18 -2.67 0.23 -3.50 0.09z"/>
        <path d="M28.80 7.21 c2.51 -0.01 6.64 -0.01 9.16 0 2.51 0.01 0.46 0.01 -4.58 0.01 -5.04 0 -7.09 -0.01 -4.57 -0.01z"/>
    </g>
</svg>