<?xml version="1.0" encoding="utf-8"?>
<!DOCTYPE svg PUBLIC "-//W3C//DTD SVG 1.0//EN" "http://www.w3.org/TR/2001/REC-SVG-20010904/DTD/svg10.dtd">
<svg version="1.0" xmlns="http://www.w3.org/2000/svg" width="64px" height="64px" viewBox="0 0 64 64" preserveAspectRatio="xMidYMid meet">
 <g fill="#ffffff">
  <path d="M31.56 38.46 c-3.07 -0.27 -5.72 -1.48 -7.93 -3.61 -1.99 -1.93 -3.42 -4.57 -3.88 -7.19 -0.43 -2.42 -0.32 -4.58 0.36 -6.91 0.15 -0.53 0.44 -1.53 0.64 -2.22 0.19 -0.69 0.52 -1.81 0.72 -2.50 0.19 -0.69 0.51 -1.77 0.70 -2.41 0.19 -0.64 0.45 -1.54 0.58 -2 0.13 -0.46 0.31 -1.08 0.39 -1.38 0.09 -0.29 0.22 -0.74 0.29 -0.98 l0.13 -0.46 8.93 0 8.93 0 0.48 1.67 c0.27 0.92 0.69 2.38 0.95 3.23 0.25 0.86 0.69 2.35 0.96 3.31 0.28 0.96 0.69 2.36 0.91 3.11 0.66 2.24 0.69 2.42 0.69 4.74 0 2.07 -0.02 2.30 -0.32 3.54 -0.73 3.03 -2.72 5.94 -5.34 7.78 -1.51 1.06 -3.51 1.89 -5.22 2.14 -0.68 0.10 -2.41 0.17 -2.97 0.13z m2.84 -2.41 c3.80 -0.79 7.06 -3.72 8.28 -7.47 0.55 -1.67 0.72 -3.26 0.52 -4.94 l-0.03 -0.31 -0.36 0.02 c-0.52 0.04 -4.19 0.38 -6.38 0.59 -3.19 0.31 -10.86 1.04 -12.72 1.22 -0.96 0.09 -1.82 0.19 -1.89 0.22 -0.14 0.06 -0.15 0.08 -0.11 0.45 0.39 3.71 2.20 6.72 5.23 8.71 2.16 1.42 5.07 2.01 7.45 1.51z m-2.81 -14.21 c0.42 -0.26 0.69 -0.63 0.77 -1.02 0.14 -0.64 -0.27 -1.33 -0.96 -1.64 -0.67 -0.29 -1.49 0.10 -1.84 0.88 -0.17 0.38 -0.16 0.66 0.03 1.05 0.28 0.55 0.85 0.94 1.39 0.95 0.20 0 0.36 -0.06 0.61 -0.22z m4.64 -0.66 c0.24 -0.14 0.45 -0.47 0.45 -0.68 0 -0.26 -0.26 -0.63 -0.54 -0.76 l-0.27 -0.13 -0.26 0.13 c-0.67 0.33 -0.72 1.07 -0.10 1.44 0.26 0.16 0.46 0.16 0.73 0z m-1.61 -3.41 c0.59 -0.38 0.77 -1.11 0.40 -1.63 -0.38 -0.53 -0.91 -0.71 -1.38 -0.47 -0.43 0.22 -0.77 0.69 -0.77 1.08 0 0.30 0.28 0.79 0.56 0.98 0.46 0.31 0.77 0.32 1.19 0.06z m-3.11 -3.40 c0.39 -0.43 0.36 -0.84 -0.08 -1.22 -0.14 -0.12 -0.27 -0.16 -0.45 -0.16 -0.22 0 -0.29 0.04 -0.52 0.28 -0.22 0.21 -0.28 0.32 -0.28 0.48 0 0.44 0.44 0.87 0.88 0.87 0.19 0 0.27 -0.04 0.45 -0.24z"/>
 </g>
 <g fill="#000000">
  <path d="M23.81 56.99 c-0.66 -0.33 -0.66 -1.15 0 -1.59 l0.21 -0.14 3.77 0 3.78 0 0 -7.55 0 -7.55 -0.86 -0.11 c-4.46 -0.57 -8.54 -3.40 -10.87 -7.52 -0.56 -0.99 -0.77 -1.48 -1.21 -2.74 -0.59 -1.73 -0.79 -3.17 -0.74 -5.28 0.03 -1.51 0.19 -2.64 0.51 -3.75 0.08 -0.29 0.37 -1.27 0.63 -2.19 0.26 -0.91 0.62 -2.15 0.79 -2.75 0.17 -0.60 0.51 -1.74 0.74 -2.53 0.23 -0.79 0.69 -2.36 1.02 -3.50 0.32 -1.13 0.65 -2.13 0.71 -2.22 0.06 -0.09 0.21 -0.21 0.32 -0.28 0.21 -0.13 0.34 -0.13 9.74 -0.14 6.50 -0.01 9.60 0 9.76 0.05 0.30 0.08 0.55 0.29 0.65 0.53 0.07 0.16 1.29 4.29 2.16 7.31 0.13 0.45 0.57 1.98 0.99 3.41 1.09 3.78 1.24 4.61 1.17 6.89 -0.05 2 -0.31 3.30 -1.01 5.20 -1.91 5.11 -6.70 8.93 -11.99 9.54 l-0.67 0.08 0 7.55 0 7.55 3.77 0 c3.46 0 3.78 0.01 3.97 0.11 0.30 0.15 0.46 0.39 0.49 0.74 0.03 0.38 -0.13 0.69 -0.46 0.88 l-0.24 0.14 -8.44 0 -8.44 0 -0.28 -0.14z m10.56 -18.84 c1.99 -0.30 4.26 -1.33 5.94 -2.71 2.55 -2.08 4.23 -4.99 4.82 -8.32 0.06 -0.32 0.08 -1.04 0.08 -2.25 0 -2.09 -0.04 -2.35 -0.69 -4.55 -0.22 -0.74 -0.63 -2.14 -0.91 -3.11 -0.28 -0.96 -0.71 -2.45 -0.96 -3.31 -0.26 -0.86 -0.68 -2.31 -0.95 -3.23 l-0.48 -1.67 -8.74 0 -8.74 0 -0.13 0.46 c-0.08 0.24 -0.21 0.69 -0.29 0.98 -0.09 0.29 -0.26 0.91 -0.39 1.38 -0.13 0.46 -0.39 1.36 -0.58 2 -0.19 0.64 -0.51 1.72 -0.70 2.41 -0.20 0.69 -0.52 1.81 -0.72 2.50 -0.20 0.69 -0.49 1.69 -0.64 2.22 -0.67 2.31 -0.77 4.19 -0.36 6.53 0.46 2.62 1.89 5.26 3.88 7.19 2.21 2.14 4.87 3.34 7.93 3.61 0.50 0.04 1.94 -0.03 2.63 -0.13z"/>
 </g>
 <g fill="#bc9741">
  <path d="M31.47 36.38 c-3.07 -0.31 -5.76 -1.87 -7.71 -4.46 -1.29 -1.71 -2.09 -3.88 -2.24 -6.09 -0.04 -0.57 -0.04 -0.57 0.11 -0.64 0.08 -0.03 0.94 -0.13 1.90 -0.22 1.88 -0.18 9.78 -0.94 12.41 -1.19 2.28 -0.22 6.18 -0.57 6.85 -0.63 l0.57 -0.04 0.04 0.33 c0.21 1.75 0.03 3.62 -0.53 5.32 -1.23 3.74 -4.46 6.66 -8.28 7.47 -0.73 0.16 -2.24 0.22 -3.12 0.13z"/>
  <path d="M30.27 22.13 c-1.31 -0.60 -1.39 -2.43 -0.12 -3.08 0.36 -0.19 1.01 -0.22 1.38 -0.08 0.38 0.14 0.69 0.42 0.88 0.79 0.20 0.39 0.24 0.75 0.16 1.19 -0.09 0.45 -0.36 0.81 -0.79 1.08 -0.31 0.20 -0.38 0.22 -0.79 0.22 -0.31 0 -0.54 -0.04 -0.71 -0.12z"/>
  <path d="M35.64 21.50 c-0.97 -0.22 -1.08 -1.59 -0.17 -1.98 0.71 -0.29 1.40 0.20 1.40 0.99 0 0.42 -0.17 0.70 -0.53 0.91 -0.26 0.15 -0.37 0.16 -0.70 0.08z"/>
  <path d="M33.70 18.13 c-1.02 -0.24 -1.38 -1.66 -0.59 -2.38 0.32 -0.31 0.56 -0.38 1.05 -0.36 0.51 0.03 0.76 0.16 1.05 0.55 0.26 0.36 0.33 0.77 0.21 1.19 -0.23 0.78 -0.92 1.18 -1.72 0.99z"/>
  <path d="M30.77 14.82 c-0.52 -0.13 -0.77 -0.47 -0.77 -1.06 0 -0.37 0.01 -0.41 0.24 -0.65 0.19 -0.21 0.29 -0.26 0.56 -0.31 0.70 -0.11 1.20 0.29 1.20 0.98 0 0.75 -0.54 1.21 -1.23 1.04z"/>
  <path d="M27.96 7.14 c2.61 -0.01 6.86 -0.01 9.44 0 2.59 0.01 0.46 0.01 -4.74 0.01 -5.19 0 -7.31 -0.01 -4.70 -0.01z"/>
 </g>
</svg>