<?xml version="1.0" encoding="utf-8"?>
<!DOCTYPE svg PUBLIC "-//W3C//DTD SVG 1.0//EN" "http://www.w3.org/TR/2001/REC-SVG-20010904/DTD/svg10.dtd">
<svg version="1.0" xmlns="http://www.w3.org/2000/svg" width="64px" height="64px" viewBox="0 0 64 64" preserveAspectRatio="xMidYMid meet">
    <g fill="#fffffe">
        <path d="M31.45 47.96 c-0.03 -0.38 0.04 -0.65 0.15 -0.65 0.07 0 0.09 0.11 0.09 0.47 0 0.41 -0.01 0.47 -0.11 0.47 -0.09 0 -0.12 -0.06 -0.13 -0.29z"/>
        <path d="M31.69 38.39 c-2.03 -0.14 -3.80 -0.69 -5.54 -1.73 -0.93 -0.55 -1.57 -1.03 -2.30 -1.74 -2.21 -2.11 -3.54 -4.66 -4.11 -7.85 -0.13 -0.69 -0.14 -1.01 -0.14 -2.30 0.01 -2.15 -0.01 -2.11 1.53 -7.44 0.52 -1.79 1.09 -3.77 1.27 -4.41 0.31 -1.08 0.58 -2.01 1.04 -3.51 l0.19 -0.61 8.84 0 8.84 0 0.06 0.14 c0.04 0.08 0.23 0.72 0.43 1.42 0.21 0.71 0.50 1.72 0.65 2.25 2.69 9.23 2.74 9.46 2.86 10.96 0.21 2.66 -0.29 5.24 -1.48 7.64 -0.61 1.23 -1.36 2.29 -2.30 3.27 -1.19 1.24 -2.14 1.94 -3.61 2.66 -1.94 0.96 -4.11 1.39 -6.24 1.24z m2.51 -2.45 c1.92 -0.41 3.48 -1.17 4.94 -2.41 2.31 -1.96 3.79 -5.06 3.91 -8.16 0.02 -0.46 0.01 -1.11 -0.02 -1.44 l-0.05 -0.59 -0.41 0.02 c-0.49 0.03 -3.37 0.31 -10.53 1.07 -1.96 0.21 -4.93 0.52 -6.59 0.69 -1.67 0.17 -3.16 0.33 -3.31 0.36 l-0.29 0.03 0.05 0.51 c0.17 1.69 0.87 3.60 1.85 5.11 1.61 2.49 4.25 4.30 6.99 4.81 0.96 0.18 1.01 0.18 1.99 0.16 0.57 -0.02 1.08 -0.07 1.48 -0.15z"/>
        <path d="M23.06 7.25 c0 -0.13 0.04 -0.13 9.39 -0.13 5.16 0 9.45 0.02 9.53 0.04 0.08 0.03 0.14 0.08 0.14 0.13 0 0.08 -1.46 0.09 -9.53 0.09 -9.49 0 -9.53 0 -9.53 -0.13z"/>
    </g>
    <g fill="#000000">
        <path d="M23.83 57.06 c-0.35 -0.10 -0.46 -0.31 -0.46 -0.91 0 -0.49 0.01 -0.54 0.18 -0.73 l0.18 -0.21 3.87 -0.03 3.86 -0.03 0.01 -7.47 c0.01 -4.11 -0.01 -7.51 -0.03 -7.55 -0.03 -0.04 -0.38 -0.11 -0.77 -0.16 -1.42 -0.19 -2.84 -0.62 -4.23 -1.29 -4.02 -1.93 -6.93 -5.56 -8.09 -10.09 -0.38 -1.48 -0.44 -2 -0.43 -3.88 0 -1.58 0.01 -1.74 0.17 -2.55 0.15 -0.74 0.88 -3.38 2.35 -8.45 0.21 -0.72 0.69 -2.39 1.08 -3.72 0.38 -1.33 0.72 -2.46 0.75 -2.52 0.17 -0.31 -0.41 -0.30 10.24 -0.29 11.05 0 10.10 -0.04 10.28 0.46 0.06 0.14 0.35 1.15 0.66 2.23 0.31 1.08 1.02 3.59 1.60 5.56 2.04 7.06 2 6.88 2 9.25 0 1.89 -0.07 2.49 -0.47 4.04 -1.23 4.75 -4.49 8.55 -8.89 10.36 -1.09 0.45 -3.01 0.91 -3.79 0.91 -0.16 0 -0.33 0.03 -0.38 0.05 -0.06 0.04 -0.08 1.60 -0.06 7.58 l0.02 7.53 3.86 0.02 3.86 0.01 0.19 0.19 c0.13 0.13 0.20 0.28 0.23 0.47 0.09 0.62 -0.08 1.06 -0.48 1.19 -0.26 0.09 -16.97 0.11 -17.29 0.01z m9.56 -18.87 c1.50 -0.13 2.97 -0.54 4.35 -1.23 1.46 -0.73 2.41 -1.42 3.61 -2.66 2.64 -2.74 4.09 -6.77 3.78 -10.56 -0.12 -1.48 -0.19 -1.73 -2.86 -10.93 -0.15 -0.53 -0.44 -1.54 -0.65 -2.25 -0.20 -0.71 -0.39 -1.34 -0.43 -1.42 l-0.06 -0.14 -8.65 0 -8.66 0 -0.19 0.61 c-0.46 1.51 -0.73 2.44 -1.04 3.51 -0.18 0.64 -0.76 2.62 -1.27 4.41 -1.51 5.24 -1.52 5.31 -1.53 7.25 0 1.09 0.03 1.45 0.14 2.11 0.56 3.17 1.90 5.74 4.11 7.85 2.14 2.05 4.88 3.26 7.84 3.46 0.59 0.04 0.80 0.04 1.52 -0.02z"/>
    </g>
    <g fill="#b69345">
        <path d="M31.44 36.28 c-0.60 -0.08 -1.63 -0.30 -2.14 -0.47 -2.26 -0.75 -4.40 -2.42 -5.74 -4.49 -0.77 -1.17 -1.33 -2.52 -1.64 -3.88 -0.15 -0.69 -0.32 -2.04 -0.28 -2.09 0.02 -0.01 1.36 -0.16 2.99 -0.34 1.63 -0.17 4.72 -0.49 6.87 -0.72 5.28 -0.56 7.11 -0.74 9.03 -0.93 0.89 -0.09 1.84 -0.19 2.09 -0.22 0.32 -0.04 0.48 -0.04 0.51 0.01 0.08 0.12 0.14 1.74 0.10 2.52 -0.13 2.57 -1.17 5.11 -2.88 7.03 -1.58 1.78 -3.55 2.92 -5.97 3.44 -0.59 0.13 -2.37 0.21 -2.94 0.14z"/>
    </g>
</svg>