<?xml version="1.0" encoding="iso-8859-1"?>
<!-- Generator: Adobe Illustrator 19.0.0, SVG Export Plug-In . SVG Version: 6.00 Build 0)  -->
<svg version="1.1" id="Capa_1" xmlns="http://www.w3.org/2000/svg" xmlns:xlink="http://www.w3.org/1999/xlink" x="0px" y="0px"
	 viewBox="0 0 404 404" style="enable-background:new 0 0 404 404;" xml:space="preserve">
<g transform="rotate(-90, 202, 202)">
	<g>
		<g>
			<path d="M266.96,176.568l-0.008-0.117c-0.79-26.653-17.678-49.924-42.452-59.043V5c0-2.761-2.239-5-5-5h-35c-2.761,0-5,2.239-5,5
				v112.407c-24.775,9.119-41.662,32.39-42.452,59.043l-0.008,0.117c-0.022,0.325-0.041,0.649-0.041,0.979v207.171
				c0,10.633,8.65,19.283,19.282,19.283h91.435c10.633,0,19.283-8.65,19.285-19.282V177.547
				C267.001,177.216,266.982,176.892,266.96,176.568z M146.997,177.546c0-0.1,0.011-0.199,0.017-0.298l0.018-0.266
				c0.003-0.053,0.006-0.105,0.007-0.157c0.668-23.643,16.307-44.156,38.916-51.042c2.105-0.641,3.543-2.583,3.543-4.783V10h25
				v111.001c0,2.2,1.439,4.142,3.543,4.783c22.609,6.886,38.248,27.398,38.916,51.042c0.002,0.053,0.004,0.105,0.007,0.157
				l0.018,0.266c0.006,0.099,0.017,0.198,0.017,0.298v11.484h-110h-0.002V177.546z M256.999,199.031V348h-110V199.031H256.999z
				 M257,384.717c0,5.119-4.164,9.283-9.283,9.283h-91.435c-5.119,0-9.283-4.164-9.283-9.283V358H257V384.717z"/>
			<path d="M160.999,337c2.761,0,5-2.239,5-5V215c0-2.761-2.239-5-5-5s-5,2.239-5,5v117C155.999,334.761,158.238,337,160.999,337z"
				/>
		</g>
	</g>
</g>
<g>
</g>
<g>
</g>
<g>
</g>
<g>
</g>
<g>
</g>
<g>
</g>
<g>
</g>
<g>
</g>
<g>
</g>
<g>
</g>
<g>
</g>
<g>
</g>
<g>
</g>
<g>
</g>
<g>
</g>
</svg>
