<?xml version="1.0" encoding="utf-8"?>
<!DOCTYPE svg PUBLIC "-//W3C//DTD SVG 1.0//EN" "http://www.w3.org/TR/2001/REC-SVG-20010904/DTD/svg10.dtd">
<svg version="1.0" xmlns="http://www.w3.org/2000/svg" width="64px" height="64px" viewBox="0 0 64 64" preserveAspectRatio="xMidYMid meet">
    <g fill="#fffffe">
        <path d="M31.03 38.37 c-0.79 -0.08 -1.75 -0.29 -2.56 -0.57 -4.66 -1.56 -7.96 -5.66 -8.76 -10.86 -0.14 -0.89 -0.16 -3.24 -0.04 -4.09 0.14 -0.98 0.26 -1.41 2.81 -10.34 0.53 -1.88 1.01 -3.47 1.06 -3.54 l0.09 -0.14 8.72 0 8.72 0 0.09 0.14 c0.13 0.20 3 10.28 3.50 12.27 0.39 1.56 0.38 1.49 0.38 3.50 0 2.04 -0.04 2.38 -0.41 3.83 -1.01 3.89 -3.53 7.03 -7 8.71 -2.04 0.98 -4.27 1.36 -6.59 1.12z m3.09 -2.40 c4.69 -1.02 8.12 -4.99 8.63 -10 0.08 -0.71 0.03 -2.38 -0.07 -2.54 -0.05 -0.08 -1.02 0.01 -7.31 0.67 -0.77 0.08 -2.89 0.30 -4.72 0.49 -1.82 0.19 -4.54 0.47 -6.03 0.63 -1.49 0.16 -2.74 0.31 -2.76 0.33 -0.08 0.08 0.12 1.42 0.32 2.23 0.34 1.34 0.99 2.74 1.81 3.88 0.45 0.64 1.52 1.75 2.16 2.25 1.43 1.12 3.07 1.84 4.84 2.13 0.70 0.12 2.47 0.08 3.13 -0.06z"/>
        <path d="M22.81 7.25 c0 -0.13 0.04 -0.13 6.28 -0.13 6.24 0 6.28 0 6.28 0.13 0 0.13 -0.04 0.13 -6.28 0.13 -6.24 0 -6.28 0 -6.28 -0.13z"/>
        <path d="M36.38 7.25 c0 -0.13 0.04 -0.13 2.91 -0.13 2.81 0 3.15 0.02 3.15 0.19 0 0.04 -1.13 0.06 -3.03 0.06 -2.99 0 -3.03 0 -3.03 -0.13z"/>
    </g>
    <g fill="#010101">
        <path d="M23.54 57.09 c-0.08 -0.08 -0.10 -0.24 -0.10 -0.82 0 -0.40 0.03 -0.77 0.05 -0.81 0.12 -0.18 0.56 -0.20 4.09 -0.20 3.52 0 3.61 0 3.67 -0.13 0.09 -0.16 0.06 -14.91 -0.03 -14.99 -0.03 -0.03 -0.39 -0.11 -0.78 -0.16 -3.36 -0.48 -6.53 -2.23 -8.78 -4.86 -1.29 -1.51 -2.24 -3.17 -2.91 -5.09 -0.55 -1.59 -0.79 -2.96 -0.86 -4.74 -0.06 -1.97 0.11 -3.09 0.89 -5.88 1.99 -7.07 3.43 -12.01 3.53 -12.11 0.11 -0.11 0.56 -0.11 10.07 -0.11 9.51 0 9.96 0.01 10.04 0.11 0.04 0.06 0.12 0.26 0.17 0.43 0.36 1.29 1.05 3.74 1.39 4.91 1.63 5.64 2.46 8.70 2.64 9.78 0.17 0.98 0.23 2.79 0.13 3.81 -0.38 3.63 -1.84 6.93 -4.18 9.40 -2.29 2.42 -5.32 4 -8.48 4.39 -0.36 0.04 -0.65 0.11 -0.71 0.16 -0.08 0.08 -0.09 1.13 -0.09 7.48 0 5.81 0.02 7.41 0.08 7.49 0.07 0.09 0.39 0.11 3.73 0.11 2.59 0.01 3.72 0.03 3.88 0.08 0.26 0.09 0.32 0.28 0.30 0.95 -0.01 0.49 -0.08 0.78 -0.19 0.86 -0.04 0.03 -3.99 0.05 -8.78 0.05 -7.82 0 -8.71 -0.01 -8.79 -0.10z m10.01 -18.91 c4.18 -0.46 7.93 -3.16 9.86 -7.09 0.47 -0.95 0.77 -1.76 1.02 -2.74 0.37 -1.42 0.41 -1.81 0.41 -3.64 0 -1.80 0.01 -1.76 -0.38 -3.31 -0.50 -1.99 -3.38 -12.07 -3.50 -12.26 l-0.09 -0.14 -8.53 0 -8.53 0 -0.09 0.14 c-0.05 0.08 -0.52 1.67 -1.06 3.54 -2.53 8.86 -2.66 9.35 -2.80 10.31 -0.12 0.81 -0.10 2.89 0.03 3.75 0.80 5.20 4.10 9.30 8.76 10.86 1.61 0.54 3.33 0.74 4.89 0.57z"/>
    </g>
    <g fill="#fd878d">
        <path d="M30.81 36.22 c-1.77 -0.29 -3.41 -1.01 -4.84 -2.13 -0.64 -0.50 -1.71 -1.61 -2.16 -2.25 -1.11 -1.56 -1.84 -3.42 -2.09 -5.32 -0.11 -0.82 -0.12 -1.13 -0.04 -1.17 0.03 -0.03 1.27 -0.16 2.77 -0.32 1.49 -0.16 4.06 -0.43 5.71 -0.59 1.65 -0.17 3.66 -0.38 4.47 -0.47 7.81 -0.82 8.21 -0.86 8.27 -0.69 0.08 0.21 0.12 2.17 0.05 2.85 -0.46 4.61 -3.35 8.34 -7.51 9.71 -1.09 0.36 -1.48 0.42 -2.84 0.44 -0.88 0.02 -1.41 0 -1.79 -0.06z"/>
        <path d="M35.52 7.14 c0.19 -0.01 0.52 -0.01 0.72 0 0.19 0.01 0.03 0.02 -0.36 0.02 -0.39 0 -0.56 -0.01 -0.36 -0.02z"/>
    </g>
</svg>